<?xml version="1.0" encoding="UTF-8"?>
<svg id="Layer_1" data-name="Layer 1" xmlns="http://www.w3.org/2000/svg" viewBox="0 0 104.88 17.95">
  <defs>
    <style>
      .cls-1 {
        fill: #b87860;
      }

      .cls-2 {
        fill: #3e3a39;
      }

      .cls-3 {
        fill: #86acaa;
      }

      .cls-4 {
        fill: #535470;
      }

      .cls-5 {
        fill: #595857;
      }
    </style>
  </defs>
  <path class="cls-2" d="M33.69,3.92c.2-1.04.2-1.87.21-2.54v-.7h-7.19v1.14h5.72c0,.57-.04,1.25-.21,2.1h-6.67v1.14h9.47v-1.14h-1.33ZM28.08,9.39v-.72h5.77v-2.88h-7.23v1.12h5.79v.7h-5.77v2.93h7.49v-1.14h-6.05Z"/>
  <polygon class="cls-2" points="41.02 8.25 41.02 6.69 44.2 6.69 44.2 5.53 38.13 5.53 38.13 4.36 43.97 4.36 43.97 .92 36.66 .92 36.66 2.08 42.53 2.08 42.53 3.23 36.69 3.23 36.69 6.69 39.59 6.69 39.59 8.25 35.59 8.25 35.59 9.44 45.06 9.44 45.06 8.25 41.02 8.25"/>
  <path class="cls-2" d="M52.92.25v2.09h-1.91V.69h-1.44v1.21h-2.02V.69h-1.47v4.56h4.93v-1.72h1.91v2.02h1.44V.25h-1.44ZM49.57,4.13h-2.02v-1.12h2.02v1.12ZM48.94,9.34v-.63h5.42v-2.79h-6.88v1.14h5.44v.6h-5.44v2.81h7.19v-1.14h-5.72Z"/>
  <path class="cls-2" d="M61.13,8.23v-2.3h-1.44v2.3h-4v1.16h9.47v-1.16h-4.03ZM61.17,2.22h3.15v-1.19h-7.84v1.19h3.15c-.13,1.37-1.41,2.66-3.55,3l.56,1.14c1.79-.32,3.12-1.23,3.77-2.48.66,1.22,2,2.12,3.81,2.43l.58-1.16c-2.21-.31-3.5-1.57-3.64-2.93"/>
  <path class="cls-2" d="M71.64,3.69c-1.21.26-2.3.34-4.09.35V1.94h3.21V.81h-4.65v4.35h.86c2.22.01,3.49-.02,4.84-.35l-.16-1.12ZM68.53,9.32v-.65h5.42v-2.84h-6.86v1.14h5.42v.63h-5.4v2.88h7.14v-1.16h-5.72ZM73.95,2.22V.25h-1.46v5.16h1.46v-2.02h1.4v-1.16h-1.4Z"/>
  <path class="cls-2" d="M76.18,1.53v1.16h2.69c-.19,2.02-1.09,3.54-3.2,4.77l.84,1.02c2.91-1.7,3.77-4.06,3.77-6.95h-4.09ZM83.32.25v3.93h-.95V.53h-1.35v9.61h1.35v-4.79h.95v5.26h1.37V.25h-1.37Z"/>
  <path class="cls-2" d="M89.69.71v1.23h-2.12V.71h-1.44v4.51h5.02V.71h-1.47ZM89.69,4.11h-2.12v-1.07h2.12v1.07ZM88.62,9.39v-.67h5.42v-2.81h-6.86v1.12h5.42v.65h-5.4v2.86h7.14v-1.14h-5.72ZM94.04,2.27V.25h-1.47v5.28h1.47v-2.09h1.39v-1.16h-1.39Z"/>
  <path class="cls-2" d="M98.6,9.25v-1.42h1.46v-1.97c.84-.06,1.68-.15,2.49-.29l-.07-1.05c-2.19.29-4.74.3-6.65.33l.19,1.14c.78,0,1.66,0,2.58-.03v1.36h-1.44v3.09h7.72v-1.16h-6.28ZM99.21.62c-1.53,0-2.59.76-2.61,1.86.01,1.1,1.07,1.81,2.61,1.81s2.58-.71,2.58-1.81-1.07-1.86-2.58-1.86M99.21,3.25c-.73,0-1.23-.27-1.23-.77,0-.52.5-.8,1.23-.79.7,0,1.2.27,1.21.79-.01.5-.51.77-1.21.77M103.18.27v6h-1.98v.98h1.98v.84h1.46V.27h-1.46Z"/>
  <path class="cls-5" d="M27.1,15.32v.33h.78c-.01.52-.36.85-.86.86-.55,0-.97-.42-.97-1.18s.42-1.18.94-1.18c.42,0,.71.24.84.62h.39c-.11-.57-.6-.97-1.23-.96-.76,0-1.3.58-1.3,1.52s.53,1.53,1.33,1.53c.71,0,1.21-.47,1.22-1.21v-.32h-1.14Z"/>
  <rect class="cls-5" x="28.74" y="13.84" width=".36" height="2.97"/>
  <path class="cls-5" d="M30.57,14.55c-.6,0-1.02.46-1.02,1.16s.41,1.15,1.02,1.15c.6,0,1.01-.46,1.01-1.15,0-.7-.4-1.16-1.01-1.16M30.57,16.54c-.46,0-.66-.39-.66-.83s.21-.84.66-.84c.45,0,.66.4.66.84,0,.44-.21.83-.66.83"/>
  <path class="cls-5" d="M33.11,14.55c-.43,0-.57.27-.65.39h-.03v-1.1h-.35v2.97h.34v-.34h.03c.08.13.23.39.65.4.55,0,.94-.45.94-1.16s-.39-1.15-.95-1.15M33.06,16.54c-.4,0-.63-.34-.63-.85s.22-.82.63-.82c.43,0,.64.36.65.82,0,.47-.22.85-.65.85"/>
  <path class="cls-5" d="M35.36,14.55c-.49,0-.84.25-.88.61h.37c.05-.17.22-.3.5-.3.34,0,.51.16.5.45v.18c-.1,0-.46.02-.6.04-.39.02-.84.14-.84.65,0,.43.34.68.76.68.38,0,.58-.21.66-.35h.02v.3h.35v-1.47c0-.7-.55-.79-.84-.79M35.85,16c0,.28-.22.54-.62.54-.27,0-.46-.12-.46-.35s.2-.36.53-.38l.56-.04v.23Z"/>
  <rect class="cls-5" x="36.76" y="13.84" width=".36" height="2.97"/>
  <path class="cls-5" d="M39.78,13.84h-1.01v2.97h.37v-1.07h.65c.69,0,1-.43,1.01-.95,0-.53-.32-.95-1.02-.95M39.77,15.41h-.63v-1.24h.62c.48,0,.66.26.66.62s-.19.62-.66.62"/>
  <path class="cls-5" d="M42.21,14.55c-.27,0-.5.15-.58.37h-.02v-.34h-.35v2.22h.36v-1.4c0-.3.23-.52.55-.52.09,0,.19.02.21.03v-.36s-.13,0-.18,0"/>
  <path class="cls-5" d="M43.58,14.55c-.6,0-1.02.46-1.02,1.16s.41,1.15,1.02,1.15c.6,0,1.01-.46,1.01-1.15,0-.7-.41-1.16-1.01-1.16M43.58,16.54c-.45,0-.66-.39-.66-.83s.21-.84.66-.84c.45,0,.66.4.66.84,0,.44-.21.83-.66.83"/>
  <path class="cls-5" d="M45.95,16.54c-.4,0-.66-.33-.66-.85s.27-.83.66-.82c.3,0,.47.18.53.39h.35c-.06-.42-.42-.7-.89-.7-.6,0-1.01.48-1.01,1.16s.39,1.15,1.02,1.15c.49,0,.82-.31.88-.71h-.35c-.07.24-.26.39-.53.39"/>
  <path class="cls-5" d="M48.67,14.58v1.31c0,.42-.32.61-.57.61-.28,0-.48-.21-.48-.53v-1.38h-.36v1.41c0,.57.31.84.72.84.34,0,.56-.18.66-.4h.03v.38h.35v-2.22h-.35Z"/>
  <path class="cls-5" d="M50.53,14.55c-.26,0-.5.15-.58.37h-.03v-.34h-.34v2.22h.36v-1.4c0-.3.23-.52.55-.52.09,0,.19.02.21.03v-.36s-.13,0-.18,0"/>
  <path class="cls-5" d="M52.85,15.67c0-.83-.49-1.11-.96-1.12-.6,0-1.01.48-1.01,1.16s.4,1.15,1.04,1.15c.46,0,.79-.24.89-.57h-.38c-.07.14-.24.25-.51.25-.39,0-.67-.26-.69-.72h1.62v-.15ZM51.23,15.52c.02-.35.27-.65.65-.65.37,0,.6.27.6.65h-1.26Z"/>
  <path class="cls-5" d="M55.56,14.55c-.32,0-.55.15-.66.39h-.02c-.11-.24-.31-.38-.6-.39-.29,0-.51.14-.6.39h-.03v-.35h-.34v2.22h.36v-1.38c0-.33.23-.55.5-.55s.44.17.44.42v1.52h.36v-1.44c0-.29.17-.5.49-.5.24,0,.45.13.45.46v1.48h.35v-1.48c0-.53-.28-.77-.68-.77"/>
  <path class="cls-5" d="M58.68,15.67c0-.83-.5-1.11-.97-1.12-.6,0-1.01.48-1.01,1.16s.4,1.15,1.04,1.15c.46,0,.79-.24.89-.57h-.38c-.08.14-.24.25-.51.25-.39,0-.67-.26-.69-.72h1.62v-.15ZM57.06,15.52c.03-.35.27-.65.66-.65.37,0,.6.27.61.65h-1.26Z"/>
  <path class="cls-5" d="M60.16,14.55c-.33,0-.55.16-.65.39h-.03v-.35h-.34v2.22h.36v-1.33c0-.39.24-.61.56-.61.31,0,.5.21.5.55v1.38h.35v-1.42c0-.56-.3-.84-.76-.84"/>
  <path class="cls-5" d="M62.27,16.5c-.15,0-.29-.04-.29-.33v-1.29h.47v-.29h-.47v-.54h-.36v.54h-.33v.29h.33v1.39c0,.39.32.58.61.57.11,0,.19,0,.25-.02v-.33c-.05,0-.14.01-.21,0"/>
  <path class="cls-5" d="M64.95,13.84h-.96v2.97h.92c.9,0,1.41-.56,1.41-1.49,0-.93-.51-1.48-1.38-1.49M64.9,16.48h-.53v-2.32h.57c.69,0,1.04.44,1.04,1.16,0,.72-.36,1.16-1.08,1.16"/>
  <path class="cls-5" d="M68.7,15.67c0-.83-.5-1.11-.97-1.12-.6,0-1.01.48-1.01,1.16s.4,1.15,1.04,1.15c.46,0,.79-.24.89-.57h-.38c-.08.14-.24.25-.51.25-.4,0-.67-.26-.69-.72h1.62v-.15ZM67.08,15.52c.03-.35.27-.65.65-.65.37,0,.6.27.6.65h-1.26Z"/>
  <polygon class="cls-5" points="70.53 14.58 69.93 16.35 69.91 16.35 69.29 14.58 68.91 14.58 69.73 16.81 70.1 16.81 70.92 14.58 70.53 14.58"/>
  <path class="cls-5" d="M73.1,15.67c0-.83-.5-1.11-.97-1.12-.6,0-1.01.48-1.01,1.16s.4,1.15,1.04,1.15c.46,0,.79-.24.89-.57h-.38c-.08.14-.24.25-.51.25-.39,0-.67-.26-.69-.72h1.62v-.15ZM71.48,15.52c.02-.35.27-.65.65-.65.37,0,.6.27.61.65h-1.26Z"/>
  <rect class="cls-5" x="73.55" y="13.84" width=".36" height="2.97"/>
  <path class="cls-5" d="M75.39,14.55c-.61,0-1.02.46-1.02,1.16s.41,1.15,1.02,1.15c.6,0,1.01-.46,1.01-1.15,0-.7-.4-1.16-1.01-1.16M75.39,16.54c-.45,0-.66-.39-.66-.83s.21-.84.66-.84c.45,0,.66.4.65.84,0,.44-.2.83-.65.83"/>
  <path class="cls-5" d="M77.88,14.55c-.43,0-.57.27-.65.39h-.04v-.35h-.34v3.06h.36v-1.18h.03c.08.13.22.39.65.4.56,0,.95-.45.95-1.16,0-.7-.39-1.15-.95-1.15M77.83,16.54c-.41,0-.63-.34-.63-.85s.22-.82.63-.82c.43,0,.64.36.65.82,0,.47-.22.85-.65.85"/>
  <path class="cls-5" d="M81.54,14.55c-.32,0-.55.15-.66.39h-.03c-.11-.24-.31-.38-.6-.39-.29,0-.51.14-.6.39h-.03v-.35h-.35v2.22h.36v-1.38c0-.33.23-.55.5-.55s.44.17.44.42v1.52h.36v-1.44c0-.29.17-.5.49-.5.24,0,.44.13.44.46v1.48h.35v-1.48c0-.53-.28-.77-.68-.77"/>
  <path class="cls-5" d="M84.66,15.67c0-.83-.5-1.11-.97-1.12-.61,0-1.01.48-1.01,1.16s.4,1.15,1.04,1.15c.46,0,.79-.24.89-.57h-.38c-.08.14-.24.25-.51.25-.39,0-.67-.26-.69-.72h1.62v-.15ZM83.04,15.52c.02-.35.27-.65.65-.65.37,0,.6.27.6.65h-1.26Z"/>
  <path class="cls-5" d="M86.14,14.55c-.34,0-.55.16-.65.39h-.03v-.35h-.35v2.22h.36v-1.33c0-.39.24-.61.56-.61s.5.21.5.55v1.38h.35v-1.42c0-.56-.3-.84-.75-.84"/>
  <path class="cls-5" d="M88.24,16.5c-.15,0-.29-.04-.29-.33v-1.29h.47v-.29h-.47v-.54h-.36v.54h-.34v.29h.34v1.39c0,.39.31.58.61.57.11,0,.2,0,.25-.02v-.33s-.14.01-.21,0"/>
  <rect class="cls-5" x="89.97" y="13.84" width=".37" height="2.97"/>
  <path class="cls-5" d="M91.97,14.55c-.34,0-.55.16-.65.39h-.03v-.35h-.34v2.22h.36v-1.33c0-.39.23-.61.56-.61.31,0,.5.21.5.55v1.38h.35v-1.42c0-.56-.3-.84-.76-.84"/>
  <path class="cls-5" d="M94.31,15.58l-.33-.08c-.26-.06-.38-.16-.39-.31,0-.19.2-.33.47-.34.26,0,.41.13.45.31h.34c-.04-.37-.33-.61-.8-.61-.49,0-.82.28-.82.65,0,.3.21.51.6.61l.34.08c.25.06.36.16.37.32,0,.21-.2.34-.52.34-.28,0-.44-.1-.48-.32h-.37c.06.4.36.62.86.63.56,0,.87-.29.87-.67,0-.31-.2-.51-.6-.61"/>
  <path class="cls-5" d="M96.16,16.5c-.15,0-.29-.04-.29-.33v-1.29h.47v-.29h-.47v-.54h-.36v.54h-.33v.29h.33v1.39c0,.39.32.58.62.57.1,0,.19,0,.24-.02v-.33s-.14.01-.21,0"/>
  <path class="cls-5" d="M96.98,13.74c-.14,0-.25.1-.25.24s.11.24.25.24.25-.11.24-.24c0-.13-.11-.24-.24-.24M96.79,16.81h.36v-2.22h-.36v2.22Z"/>
  <path class="cls-5" d="M98.51,16.5c-.15,0-.29-.04-.29-.33v-1.29h.47v-.29h-.47v-.54h-.36v.54h-.34v.29h.34v1.39c0,.39.31.58.61.57.11,0,.19,0,.24-.02v-.33c-.05,0-.14.01-.21,0"/>
  <path class="cls-5" d="M100.55,14.58v1.31c0,.42-.31.61-.57.61-.28,0-.48-.21-.48-.53v-1.38h-.36v1.41c0,.57.31.84.72.84.34,0,.56-.18.66-.4h.03v.38h.35v-2.22h-.35Z"/>
  <path class="cls-5" d="M102.25,16.5c-.15,0-.29-.04-.28-.33v-1.29h.47v-.29h-.47v-.54h-.36v.54h-.33v.29h.33v1.39c0,.39.32.58.61.57.11,0,.19,0,.24-.02v-.33s-.14.01-.21,0"/>
  <path class="cls-5" d="M104.73,15.67c0-.83-.5-1.11-.96-1.12-.6,0-1.01.48-1.01,1.16s.4,1.15,1.04,1.15c.46,0,.79-.24.89-.57h-.38c-.08.14-.24.25-.51.25-.39,0-.67-.26-.69-.72h1.62v-.15ZM103.11,15.52c.02-.35.27-.65.65-.65.37,0,.6.27.61.65h-1.26Z"/>
  <rect class="cls-1" y="11.97" width="5.98" height="5.99"/>
  <polygon class="cls-4" points="17.95 0 17.95 17.95 14.96 17.95 14.96 2.99 0 2.99 0 0 17.95 0"/>
  <polygon class="cls-3" points="11.97 5.99 11.97 17.95 8.98 17.95 8.98 8.98 0 8.98 0 5.99 11.97 5.99"/>
</svg>